<svg width="25" height="25" viewBox="0 0 25 25" fill="none" xmlns="http://www.w3.org/2000/svg">
<rect width="25" height="25" fill="#29350D"/>
<rect width="25" height="25" fill="white"/>
<path fill-rule="evenodd" clip-rule="evenodd" d="M19.9665 9.38616C19.9888 10.0112 20 11.0491 20 12.5C20 13.9509 19.9833 14.9944 19.9498 15.6306C19.9163 16.2667 19.8214 16.8192 19.6652 17.2879C19.4643 17.846 19.1574 18.3315 18.7444 18.7444C18.3315 19.1574 17.846 19.4643 17.2879 19.6652C16.8192 19.8214 16.2667 19.9163 15.6306 19.9498C14.9944 19.9833 13.9509 20 12.5 20C11.0491 20 10.0056 19.9833 9.36942 19.9498C8.73326 19.9163 8.1808 19.8103 7.71205 19.6317C7.15402 19.4531 6.66853 19.1574 6.25558 18.7444C5.84263 18.3315 5.53571 17.846 5.33482 17.2879C5.17857 16.8192 5.08371 16.2667 5.05022 15.6306C5.01674 14.9944 5 13.9509 5 12.5C5 11.0491 5.01674 10.0056 5.05022 9.36942C5.08371 8.73326 5.17857 8.1808 5.33482 7.71205C5.53571 7.15402 5.84263 6.66853 6.25558 6.25558C6.66853 5.84263 7.15402 5.53571 7.71205 5.33482C8.1808 5.17857 8.73326 5.08371 9.36942 5.05022C10.0056 5.01674 11.0491 5 12.5 5C13.9509 5 14.9944 5.01674 15.6306 5.05022C16.2667 5.08371 16.8192 5.17857 17.2879 5.33482C17.846 5.53571 18.3315 5.84263 18.7444 6.25558C19.1574 6.66853 19.4643 7.15402 19.6652 7.71205C19.8214 8.1808 19.9219 8.73884 19.9665 9.38616ZM17.1373 9.1183C17.3047 8.93973 17.3996 8.72768 17.4219 8.48214C17.4219 8.23661 17.3326 8.02455 17.154 7.84598C16.9754 7.66741 16.7634 7.57812 16.5179 7.57812C16.2723 7.57812 16.0603 7.66741 15.8817 7.84598C15.7031 8.02455 15.6138 8.23661 15.6138 8.48214C15.6138 8.72768 15.7031 8.93973 15.8817 9.1183C16.0603 9.29688 16.2723 9.38616 16.5179 9.38616C16.7634 9.38616 16.9699 9.29688 17.1373 9.1183ZM12.5 8.64955C13.192 8.64955 13.8337 8.82254 14.4252 9.16853C15.0167 9.51451 15.4855 9.98326 15.8315 10.5748C16.1775 11.1663 16.3504 11.808 16.3504 12.5C16.3504 13.192 16.1775 13.8337 15.8315 14.4252C15.4855 15.0167 15.0167 15.4855 14.4252 15.8315C13.8337 16.1775 13.192 16.3504 12.5 16.3504C11.808 16.3504 11.1663 16.1775 10.5748 15.8315C9.98326 15.4855 9.51451 15.0167 9.16853 14.4252C8.82254 13.8337 8.64955 13.192 8.64955 12.5C8.64955 11.808 8.82254 11.1663 9.16853 10.5748C9.51451 9.98326 9.98326 9.51451 10.5748 9.16853C11.1663 8.82254 11.808 8.64955 12.5 8.64955ZM12.5 15.0112C13.192 15.0112 13.7835 14.7656 14.2746 14.2746C14.7656 13.7835 15.0112 13.192 15.0112 12.5C15.0112 11.808 14.7656 11.2165 14.2746 10.7254C13.7835 10.2344 13.192 9.98884 12.5 9.98884C11.808 9.98884 11.2165 10.2344 10.7254 10.7254C10.2344 11.2165 9.98884 11.808 9.98884 12.5C9.98884 13.192 10.2344 13.7835 10.7254 14.2746C11.2165 14.7656 11.808 15.0112 12.5 15.0112ZM18.6272 15.1116C18.5826 15.9375 18.4933 16.5402 18.3594 16.9196C18.0915 17.5893 17.6116 18.0692 16.9196 18.3594C16.5625 18.4933 15.9598 18.5826 15.1116 18.6272C14.6429 18.6496 13.9509 18.6607 13.0357 18.6607H11.9643C11.0714 18.6607 10.3795 18.6496 9.88839 18.6272C9.0625 18.5826 8.45982 18.4933 8.08036 18.3594C7.41071 18.0915 6.9308 17.6116 6.64062 16.9196C6.5067 16.5402 6.41741 15.9375 6.37277 15.1116C6.35045 14.6205 6.33929 13.9286 6.33929 13.0357V11.9643C6.33929 11.0714 6.35045 10.3795 6.37277 9.88839C6.41741 9.04018 6.5067 8.4375 6.64062 8.08036C6.90848 7.38839 7.38839 6.90848 8.08036 6.64062C8.45982 6.5067 9.0625 6.41741 9.88839 6.37277C10.3795 6.35045 11.0714 6.33929 11.9643 6.33929H13.0357C13.9286 6.33929 14.6205 6.35045 15.1116 6.37277C15.9598 6.41741 16.5625 6.5067 16.9196 6.64062C17.6116 6.90848 18.0915 7.38839 18.3594 8.08036C18.4933 8.4375 18.5826 9.04018 18.6272 9.88839C18.6496 10.3571 18.6607 11.0491 18.6607 11.9643V13.0357C18.6607 13.9286 18.6496 14.6205 18.6272 15.1116Z" fill="#00594E"/>
</svg>
