<?xml version="1.0" encoding="UTF-8"?>
<svg width="25px" height="25px" viewBox="0 0 25 25" version="1.1" xmlns="http://www.w3.org/2000/svg" xmlns:xlink="http://www.w3.org/1999/xlink">
    <title>icon/social/linkedin-white</title>
    <g id="icon/social/linkedin-white" stroke="none" stroke-width="1" fill="none" fill-rule="evenodd">
        <rect id="Rectangle-Copy-3" fill="#FFFFFF" x="0" y="0" width="25" height="25"></rect>
        <path d="M8.328125,20 L8.375,20 L8.375,9.96875 L5.234375,9.96875 L5.234375,20 L8.328125,20 Z M6.78125,8.609375 C7.28125024,8.609375 7.71093726,8.42968774 8.0703125,8.0703125 C8.42968774,7.71093726 8.609375,7.28906226 8.609375,6.8046875 C8.609375,6.32031274 8.42968774,5.89843774 8.0703125,5.5390625 C7.71093726,5.17968726 7.28125024,5 6.78125,5 C6.28124976,5 5.85937476,5.17968726 5.515625,5.5390625 C5.17187524,5.89843774 5,6.32031274 5,6.8046875 C5,7.28906226 5.17187524,7.71093726 5.515625,8.0703125 C5.85937476,8.42968774 6.28124976,8.609375 6.78125,8.609375 Z M20,20 L20,14.515625 C20,12.9531252 19.7812498,11.8124998 19.34375,11.09375 C18.7499998,10.1875002 17.7343752,9.734375 16.296875,9.734375 C15.5781252,9.734375 14.9375,9.90625024 14.375,10.25 C13.90625,10.53125 13.5625002,10.8906252 13.34375,11.328125 L13.296875,11.328125 L13.296875,9.96875 L10.296875,9.96875 L10.296875,20 L13.390625,20 L13.390625,15.03125 C13.390625,14.2499998 13.4999998,13.6562502 13.71875,13.25 C14.0312502,12.7187502 14.5468752,12.453125 15.265625,12.453125 C15.9843748,12.453125 16.4531248,12.7499998 16.671875,13.34375 C16.8281248,13.71875 16.90625,14.3125002 16.90625,15.125 L16.90625,20 L20,20 Z" id="Shape" fill="#00594E" fill-rule="nonzero"></path>
    </g>
</svg>