<svg xmlns="http://www.w3.org/2000/svg" xml:space="preserve" style="fill-rule:evenodd;clip-rule:evenodd;stroke-linejoin:round;stroke-miterlimit:2" viewBox="0 0 90 100" width="134" height="150" >
  <g transform="scale(.12 .07496)">
    <path d="M0 0h750v1334H0z" style="fill:none"/>
    <clipPath id="a">
      <path d="M0 0h750v1334H0z"/>
    </clipPath>
    <g clip-path="url(#a)">
      <g transform="matrix(7.14286 0 0 11.7018 -128.571 -421.263)">
        <path d="M18 36h105v114H18z" style="fill:#9cc8ea"/>
        <clipPath id="b">
          <path d="M18 36h105v114H18z"/>
        </clipPath>
        <g clip-path="url(#b)">
          <path d="M66.057 32 135 184H13L66.057 32Z" style="fill:#c5c8c8" transform="matrix(1.42805 0 0 .67 -56.565 33.56)"/>
          <path d="M66.057 32 135 184H13L66.057 32Zm.273 8.862L18.347 178.328h110.334L66.33 40.862Z" style="fill:#fff" transform="matrix(1.42805 0 0 .67 -56.565 33.56)"/>
          <path d="M66.057 32 135 184H13L66.057 32Z" style="fill:#c5c8c8" transform="matrix(1.42805 0 0 .67 -8.91 34.454)"/>
          <path d="M66.057 32 135 184H13L66.057 32Zm.273 8.862L18.347 178.328h110.334L66.33 40.862Z" style="fill:#fff" transform="matrix(1.42805 0 0 .67 -8.91 34.454)"/>
          <path d="M67.49 126.069c0-2.798 4.262-5.069 9.51-5.069s9.51 2.271 9.51 5.069c1.481-2.722 6.83-4.504 11.937-3.977 5.107.527 8.051 3.165 6.569 5.887 2.883-2.5 9.032-3.697 13.722-2.671 4.691 1.026 6.157 3.888 3.274 6.389 4.13-2.144 10.747-2.691 14.767-1.222 4.021 1.469 3.932 4.402-.197 6.545 5.153-1.67 11.881-1.538 15.015.295 3.135 1.833 1.495 4.678-3.658 6.349 5.899-1.108 12.376-.304 14.455 1.795 2.079 2.098-1.023 4.702-6.922 5.81 6.327-.486 12.204.947 13.115 3.198.912 2.251-3.485 4.473-9.812 4.959 6.413.163 11.373 2.147 11.068 4.429-.306 2.282-5.76 4.002-12.174 3.839 6.155.803 9.929 3.232 8.424 5.422-1.505 2.189-7.724 3.315-13.879 2.513 5.564 1.399 7.951 4.142 5.326 6.121-2.624 1.979-9.272 2.451-14.835 1.052 4.673 1.92 5.542 4.828 1.941 6.491-3.602 1.662-10.32 1.453-14.993-.467 3.53 2.338 2.836 5.255-1.549 6.511-4.385 1.256-10.811.378-14.341-1.959 2.197 2.629-.023 5.398-4.955 6.18-4.932.781-10.72-.719-12.917-3.348.745 2.779-2.881 5.251-8.094 5.516-5.213.265-10.051-1.775-10.797-4.554-.746 2.779-5.584 4.819-10.797 4.554-5.213-.265-8.839-2.737-8.094-5.516-2.197 2.629-7.985 4.129-12.917 3.348-4.932-.782-7.152-3.551-4.955-6.18-3.53 2.337-9.956 3.215-14.341 1.959-4.385-1.256-5.079-4.173-1.549-6.511-4.673 1.92-11.391 2.129-14.993.467-3.601-1.663-2.732-4.571 1.941-6.491-5.563 1.399-12.211.927-14.835-1.052-2.625-1.979-.238-4.722 5.326-6.121-6.155.802-12.374-.324-13.879-2.513-1.505-2.19 2.269-4.619 8.424-5.422-6.414.163-11.868-1.557-12.174-3.839-.305-2.282 4.655-4.266 11.068-4.429-6.327-.486-10.724-2.708-9.812-4.959.911-2.251 6.788-3.684 13.115-3.198-5.899-1.108-9.001-3.712-6.922-5.81 2.079-2.099 8.556-2.903 14.455-1.795-5.153-1.671-6.793-4.516-3.658-6.349 3.134-1.833 9.862-1.965 15.015-.295-4.129-2.143-4.218-5.076-.197-6.545 4.02-1.469 10.637-.922 14.767 1.222-2.883-2.501-1.417-5.363 3.274-6.389 4.69-1.026 10.839.171 13.722 2.671-1.482-2.722 1.462-5.36 6.569-5.887 5.107-.527 10.456 1.255 11.937 3.977Z" style="fill:#62656a" transform="matrix(.51474 0 0 1.01333 -7.777 -29.613)"/>
          <path d="M67.49 126.069c0-2.798 4.262-5.069 9.51-5.069s9.51 2.271 9.51 5.069c1.481-2.722 6.83-4.504 11.937-3.977 5.107.527 8.051 3.165 6.569 5.887 2.883-2.5 9.032-3.697 13.722-2.671 4.691 1.026 6.157 3.888 3.274 6.389 4.13-2.144 10.747-2.691 14.767-1.222 4.021 1.469 3.932 4.402-.197 6.545 5.153-1.67 11.881-1.538 15.015.295 3.135 1.833 1.495 4.678-3.658 6.349 5.899-1.108 12.376-.304 14.455 1.795 2.079 2.098-1.023 4.702-6.922 5.81 6.327-.486 12.204.947 13.115 3.198.912 2.251-3.485 4.473-9.812 4.959 6.413.163 11.373 2.147 11.068 4.429-.306 2.282-5.76 4.002-12.174 3.839 6.155.803 9.929 3.232 8.424 5.422-1.505 2.189-7.724 3.315-13.879 2.513 5.564 1.399 7.951 4.142 5.326 6.121-2.624 1.979-9.272 2.451-14.835 1.052 4.673 1.92 5.542 4.828 1.941 6.491-3.602 1.662-10.32 1.453-14.993-.467 3.53 2.338 2.836 5.255-1.549 6.511-4.385 1.256-10.811.378-14.341-1.959 2.197 2.629-.023 5.398-4.955 6.18-4.932.781-10.72-.719-12.917-3.348.745 2.779-2.881 5.251-8.094 5.516-5.213.265-10.051-1.775-10.797-4.554-.746 2.779-5.584 4.819-10.797 4.554-5.213-.265-8.839-2.737-8.094-5.516-2.197 2.629-7.985 4.129-12.917 3.348-4.932-.782-7.152-3.551-4.955-6.18-3.53 2.337-9.956 3.215-14.341 1.959-4.385-1.256-5.079-4.173-1.549-6.511-4.673 1.92-11.391 2.129-14.993.467-3.601-1.663-2.732-4.571 1.941-6.491-5.563 1.399-12.211.927-14.835-1.052-2.625-1.979-.238-4.722 5.326-6.121-6.155.802-12.374-.324-13.879-2.513-1.505-2.19 2.269-4.619 8.424-5.422-6.414.163-11.868-1.557-12.174-3.839-.305-2.282 4.655-4.266 11.068-4.429-6.327-.486-10.724-2.708-9.812-4.959.911-2.251 6.788-3.684 13.115-3.198-5.899-1.108-9.001-3.712-6.922-5.81 2.079-2.099 8.556-2.903 14.455-1.795-5.153-1.671-6.793-4.516-3.658-6.349 3.134-1.833 9.862-1.965 15.015-.295-4.129-2.143-4.218-5.076-.197-6.545 4.02-1.469 10.637-.922 14.767 1.222-2.883-2.501-1.417-5.363 3.274-6.389 4.69-1.026 10.839.171 13.722 2.671-1.482-2.722 1.462-5.36 6.569-5.887 5.107-.527 10.456 1.255 11.937 3.977Z" style="fill:#62656a" transform="matrix(.51474 0 0 1.01333 35.414 -14.705)"/>
          <path d="M67.49 126.069c0-2.798 4.262-5.069 9.51-5.069s9.51 2.271 9.51 5.069c1.481-2.722 6.83-4.504 11.937-3.977 5.107.527 8.051 3.165 6.569 5.887 2.883-2.5 9.032-3.697 13.722-2.671 4.691 1.026 6.157 3.888 3.274 6.389 4.13-2.144 10.747-2.691 14.767-1.222 4.021 1.469 3.932 4.402-.197 6.545 5.153-1.67 11.881-1.538 15.015.295 3.135 1.833 1.495 4.678-3.658 6.349 5.899-1.108 12.376-.304 14.455 1.795 2.079 2.098-1.023 4.702-6.922 5.81 6.327-.486 12.204.947 13.115 3.198.912 2.251-3.485 4.473-9.812 4.959 6.413.163 11.373 2.147 11.068 4.429-.306 2.282-5.76 4.002-12.174 3.839 6.155.803 9.929 3.232 8.424 5.422-1.505 2.189-7.724 3.315-13.879 2.513 5.564 1.399 7.951 4.142 5.326 6.121-2.624 1.979-9.272 2.451-14.835 1.052 4.673 1.92 5.542 4.828 1.941 6.491-3.602 1.662-10.32 1.453-14.993-.467 3.53 2.338 2.836 5.255-1.549 6.511-4.385 1.256-10.811.378-14.341-1.959 2.197 2.629-.023 5.398-4.955 6.18-4.932.781-10.72-.719-12.917-3.348.745 2.779-2.881 5.251-8.094 5.516-5.213.265-10.051-1.775-10.797-4.554-.746 2.779-5.584 4.819-10.797 4.554-5.213-.265-8.839-2.737-8.094-5.516-2.197 2.629-7.985 4.129-12.917 3.348-4.932-.782-7.152-3.551-4.955-6.18-3.53 2.337-9.956 3.215-14.341 1.959-4.385-1.256-5.079-4.173-1.549-6.511-4.673 1.92-11.391 2.129-14.993.467-3.601-1.663-2.732-4.571 1.941-6.491-5.563 1.399-12.211.927-14.835-1.052-2.625-1.979-.238-4.722 5.326-6.121-6.155.802-12.374-.324-13.879-2.513-1.505-2.19 2.269-4.619 8.424-5.422-6.414.163-11.868-1.557-12.174-3.839-.305-2.282 4.655-4.266 11.068-4.429-6.327-.486-10.724-2.708-9.812-4.959.911-2.251 6.788-3.684 13.115-3.198-5.899-1.108-9.001-3.712-6.922-5.81 2.079-2.099 8.556-2.903 14.455-1.795-5.153-1.671-6.793-4.516-3.658-6.349 3.134-1.833 9.862-1.965 15.015-.295-4.129-2.143-4.218-5.076-.197-6.545 4.02-1.469 10.637-.922 14.767 1.222-2.883-2.501-1.417-5.363 3.274-6.389 4.69-1.026 10.839.171 13.722 2.671-1.482-2.722 1.462-5.36 6.569-5.887 5.107-.527 10.456 1.255 11.937 3.977Z" style="fill:#62656a" transform="matrix(.51474 0 0 1.01333 62.823 -16.447)"/>
          <path d="M67.49 126.069c0-2.798 4.262-5.069 9.51-5.069s9.51 2.271 9.51 5.069c1.481-2.722 6.83-4.504 11.937-3.977 5.107.527 8.051 3.165 6.569 5.887 2.883-2.5 9.032-3.697 13.722-2.671 4.691 1.026 6.157 3.888 3.274 6.389 4.13-2.144 10.747-2.691 14.767-1.222 4.021 1.469 3.932 4.402-.197 6.545 5.153-1.67 11.881-1.538 15.015.295 3.135 1.833 1.495 4.678-3.658 6.349 5.899-1.108 12.376-.304 14.455 1.795 2.079 2.098-1.023 4.702-6.922 5.81 6.327-.486 12.204.947 13.115 3.198.912 2.251-3.485 4.473-9.812 4.959 6.413.163 11.373 2.147 11.068 4.429-.306 2.282-5.76 4.002-12.174 3.839 6.155.803 9.929 3.232 8.424 5.422-1.505 2.189-7.724 3.315-13.879 2.513 5.564 1.399 7.951 4.142 5.326 6.121-2.624 1.979-9.272 2.451-14.835 1.052 4.673 1.92 5.542 4.828 1.941 6.491-3.602 1.662-10.32 1.453-14.993-.467 3.53 2.338 2.836 5.255-1.549 6.511-4.385 1.256-10.811.378-14.341-1.959 2.197 2.629-.023 5.398-4.955 6.18-4.932.781-10.72-.719-12.917-3.348.745 2.779-2.881 5.251-8.094 5.516-5.213.265-10.051-1.775-10.797-4.554-.746 2.779-5.584 4.819-10.797 4.554-5.213-.265-8.839-2.737-8.094-5.516-2.197 2.629-7.985 4.129-12.917 3.348-4.932-.782-7.152-3.551-4.955-6.18-3.53 2.337-9.956 3.215-14.341 1.959-4.385-1.256-5.079-4.173-1.549-6.511-4.673 1.92-11.391 2.129-14.993.467-3.601-1.663-2.732-4.571 1.941-6.491-5.563 1.399-12.211.927-14.835-1.052-2.625-1.979-.238-4.722 5.326-6.121-6.155.802-12.374-.324-13.879-2.513-1.505-2.19 2.269-4.619 8.424-5.422-6.414.163-11.868-1.557-12.174-3.839-.305-2.282 4.655-4.266 11.068-4.429-6.327-.486-10.724-2.708-9.812-4.959.911-2.251 6.788-3.684 13.115-3.198-5.899-1.108-9.001-3.712-6.922-5.81 2.079-2.099 8.556-2.903 14.455-1.795-5.153-1.671-6.793-4.516-3.658-6.349 3.134-1.833 9.862-1.965 15.015-.295-4.129-2.143-4.218-5.076-.197-6.545 4.02-1.469 10.637-.922 14.767 1.222-2.883-2.501-1.417-5.363 3.274-6.389 4.69-1.026 10.839.171 13.722 2.671-1.482-2.722 1.462-5.36 6.569-5.887 5.107-.527 10.456 1.255 11.937 3.977Z" style="fill:#62656a" transform="matrix(.51474 0 0 1.01333 103.066 -41.892)"/>
        </g>
        <path d="M123 36v114H18V36h105Zm-3.889 3.8H21.889v106.4h97.222V39.8Z" style="fill:#ca612b"/>
      </g>
      <path d="M.05 0h.399v-.118H.194v-.596H.05V0Z" style="fill:#fff;fill-rule:nonzero" transform="matrix(145.1512 0 0 232.358 50.37 1229.054)"/>
      <path d="M.179-.357c0-.048.001-.089.004-.122a.33.33 0 0 1 .014-.082.096.096 0 0 1 .03-.047.088.088 0 0 1 .051-.014c.021 0 .039.005.052.014.013.01.023.026.03.047a.384.384 0 0 1 .014.082 2.08 2.08 0 0 1 0 .244.362.362 0 0 1-.014.082.084.084 0 0 1-.03.046.084.084 0 0 1-.052.015.081.081 0 0 1-.051-.015.084.084 0 0 1-.03-.046.314.314 0 0 1-.014-.082 1.412 1.412 0 0 1-.004-.122Zm-.144 0c0 .055.003.105.008.15a.315.315 0 0 0 .033.117.17.17 0 0 0 .073.075.276.276 0 0 0 .129.026.276.276 0 0 0 .129-.026.173.173 0 0 0 .074-.075.335.335 0 0 0 .033-.117 1.374 1.374 0 0 0 0-.3.335.335 0 0 0-.033-.117.19.19 0 0 0-.074-.077.263.263 0 0 0-.129-.027.263.263 0 0 0-.129.027.187.187 0 0 0-.073.077.315.315 0 0 0-.033.117 1.387 1.387 0 0 0-.008.15Z" style="fill:#fff;fill-rule:nonzero" transform="matrix(145.1512 0 0 232.358 117.575 1229.054)"/>
      <path d="M.367-.502h.138A.245.245 0 0 0 .453-.67C.418-.708.362-.728.283-.728a.262.262 0 0 0-.115.023.18.18 0 0 0-.074.068.307.307 0 0 0-.039.114.916.916 0 0 0-.012.158c0 .062.003.116.008.163a.35.35 0 0 0 .032.119.15.15 0 0 0 .065.071.22.22 0 0 0 .107.023.2.2 0 0 0 .088-.018.145.145 0 0 0 .062-.059h.002V0h.106v-.385H.28v.106h.095v.073a.128.128 0 0 1-.031.086.112.112 0 0 1-.029.021.068.068 0 0 1-.029.007.063.063 0 0 1-.05-.02.124.124 0 0 1-.03-.056.456.456 0 0 1-.015-.088 1.369 1.369 0 0 1-.004-.116c0-.089.008-.153.023-.192.015-.039.04-.058.075-.058.015 0 .027.004.038.011a.116.116 0 0 1 .04.068.196.196 0 0 1 .004.041Z" style="fill:#fff;fill-rule:nonzero" transform="matrix(145.1512 0 0 232.358 198.279 1229.054)"/>
      <path d="M.179-.357c0-.048.001-.089.004-.122a.33.33 0 0 1 .014-.082.096.096 0 0 1 .03-.047.088.088 0 0 1 .051-.014c.021 0 .039.005.052.014.013.01.023.026.03.047a.384.384 0 0 1 .014.082 2.08 2.08 0 0 1 0 .244.362.362 0 0 1-.014.082.084.084 0 0 1-.03.046.084.084 0 0 1-.052.015.081.081 0 0 1-.051-.015.084.084 0 0 1-.03-.046.314.314 0 0 1-.014-.082 1.412 1.412 0 0 1-.004-.122Zm-.144 0c0 .055.003.105.008.15a.315.315 0 0 0 .033.117.17.17 0 0 0 .073.075.276.276 0 0 0 .129.026.276.276 0 0 0 .129-.026.173.173 0 0 0 .074-.075.335.335 0 0 0 .033-.117 1.374 1.374 0 0 0 0-.3.335.335 0 0 0-.033-.117.19.19 0 0 0-.074-.077.263.263 0 0 0-.129-.027.263.263 0 0 0-.129.027.187.187 0 0 0-.073.077.315.315 0 0 0-.033.117 1.387 1.387 0 0 0-.008.15Z" style="fill:#fff;fill-rule:nonzero" transform="matrix(145.1512 0 0 232.358 278.983 1229.054)"/>
      <path d="M.05-.714V0h.144v-.317h.168V0h.144v-.714H.362v.273H.194v-.273H.05Z" style="fill:#fff;fill-rule:nonzero" transform="matrix(145.1512 0 0 232.358 394.525 1229.054)"/>
      <path d="M.449-.714H.05V0h.409v-.118H.194V-.31h.24v-.118h-.24v-.168h.255v-.118Z" style="fill:#fff;fill-rule:nonzero" transform="matrix(145.1512 0 0 232.358 475.229 1229.054)"/>
      <path d="M.05-.714V0h.144v-.302h.077c.03 0 .051.008.064.024.013.016.02.038.021.066l.004.137a.492.492 0 0 0 .004.04A.083.083 0 0 0 .378 0h.156v-.006C.521-.013.512-.027.508-.047a.766.766 0 0 1-.006-.087L.5-.187A4.444 4.444 0 0 0 .497-.23C.493-.27.483-.299.466-.317a.13.13 0 0 0-.079-.035v-.002a.132.132 0 0 0 .09-.059.216.216 0 0 0 .029-.117c0-.062-.017-.108-.05-.139a.201.201 0 0 0-.14-.045H.05Zm.144.312v-.206h.068c.067 0 .1.033.1.099 0 .039-.009.066-.028.082-.019.017-.045.025-.08.025h-.06Z" style="fill:#fff;fill-rule:nonzero" transform="matrix(145.1512 0 0 232.358 545.046 1229.054)"/>
      <path d="M.449-.714H.05V0h.409v-.118H.194V-.31h.24v-.118h-.24v-.168h.255v-.118Z" style="fill:#fff;fill-rule:nonzero" transform="matrix(145.1512 0 0 232.358 625.75 1229.054)"/>
    </g>
  </g>
</svg>