<?xml version="1.0" encoding="UTF-8"?>
<svg width="25px" height="25px" viewBox="0 0 25 25" version="1.1" xmlns="http://www.w3.org/2000/svg" xmlns:xlink="http://www.w3.org/1999/xlink">
    <title>icon/social/youtube-white</title>
    <g id="icon/social/youtube-white" stroke="none" stroke-width="1" fill="none" fill-rule="evenodd">
        <rect id="Rectangle-Copy-4" fill="#FFFFFF" x="0" y="0" width="25" height="25"></rect>
        <path d="M20.6575092,8.36813187 C20.8028085,8.92857143 20.9065934,9.77960912 20.9688645,10.9212454 L21,12.478022 L20.9688645,14.0347985 C20.9065934,15.1971915 20.8028085,16.0586081 20.6575092,16.6190476 C20.5537242,16.9719168 20.366911,17.2832721 20.0970696,17.5531136 C19.8272282,17.822955 19.5054945,18.0097682 19.1318681,18.1135531 C18.5921858,18.2588524 17.3260073,18.3626374 15.3333333,18.4249084 L12.5,18.456044 L9.66666667,18.4249084 C7.67399267,18.3626374 6.40781425,18.2588524 5.86813187,18.1135531 C5.49450549,18.0097682 5.17277183,17.822955 4.9029304,17.5531136 C4.63308897,17.2832721 4.44627579,16.9719168 4.34249084,16.6190476 C4.19719154,16.0586081 4.09340659,15.1971915 4.03113553,14.0347985 L4,12.478022 C4,12.0213674 4.01037835,11.5024422 4.03113553,10.9212454 C4.09340659,9.77960912 4.19719154,8.92857143 4.34249084,8.36813187 C4.44627579,7.99450549 4.63308897,7.67277183 4.9029304,7.4029304 C5.17277183,7.13308897 5.49450549,6.94627579 5.86813187,6.84249084 C6.40781425,6.69719154 7.67399267,6.59340659 9.66666667,6.53113553 L12.5,6.5 L15.3333333,6.53113553 C17.3260073,6.59340659 18.5921858,6.69719154 19.1318681,6.84249084 C19.5054945,6.94627579 19.8272282,7.13308897 20.0970696,7.4029304 C20.366911,7.67277183 20.5537242,7.99450549 20.6575092,8.36813187 Z M10.7564103,15.0311355 L15.2087912,12.478022 L10.7564103,9.95604396 L10.7564103,15.0311355 Z" id="Shape" fill="#00594E" fill-rule="nonzero"></path>
    </g>
</svg>